<?xml version="1.0" encoding="utf-8" ?>
<svg xmlns="http://www.w3.org/2000/svg" xmlns:xlink="http://www.w3.org/1999/xlink" width="1024" height="1024">
	<path d="M682.841 107.699C688.605 106.717 697.741 106.776 703.167 109.065C706.893 110.636 709.589 113.413 711.037 117.193C716.735 132.067 705.68 160.594 699.538 174.583C702.26 175.44 704.951 176.333 707.584 177.443C730.375 187.046 742.504 205.226 751.601 227.356C760.932 228.444 780.438 230.429 786.944 237.052C794.323 244.564 793.422 257.644 793.528 267.37C818.232 261.836 844.147 260.774 866.832 273.544C888.511 285.747 903.458 306.511 909.917 330.36C918.934 363.655 910.463 400.317 893.377 429.595C872.35 465.627 840.511 481.594 801.763 491.821C831.874 519.074 857.328 547.923 869.814 587.418C877.158 610.651 878.507 636.523 866.818 658.597C857.423 676.34 840.458 689.787 821.311 695.564C790.919 704.734 762.088 696.121 735.074 681.543C721.288 701.89 705.637 718.298 687.109 734.405C691.537 734.4 695.862 734.681 700.173 735.763C708.869 737.946 716.318 742.895 720.933 750.676C730.668 767.088 727.356 790.441 722.72 807.902C713.812 841.453 691.048 876.898 660.556 894.32C644.104 903.72 625.353 908.32 606.771 903.071C593.916 899.44 581.623 891.007 575.054 879.185C566.829 864.383 567.452 847.633 571.974 831.862C564.596 818.706 561.206 803.493 556.272 789.368C532.675 790.664 508.927 793.301 485.43 788.739C479.537 798.701 474.196 808.864 468.983 819.191C464.878 826.94 462.075 835.391 459.096 843.616C461.056 850.345 461.318 856.878 460.241 863.792C458.231 876.703 451.226 889.17 440.551 896.86C428.445 905.58 413.954 908.349 399.36 905.802C375.053 901.559 357.626 886.256 342.411 867.851C338.303 862.883 334.181 857.917 330.514 852.609C311.541 825.143 299.88 785.728 305.796 752.667L212.447 753.127C194.003 753.295 174.294 755.341 156.095 751.969C147.743 750.421 140.148 747.025 133.575 741.614C119.654 730.154 114.032 711.098 112.441 693.698C112.141 690.413 112.086 686.29 114.449 683.686C116.214 681.741 119.351 681.11 121.831 680.74C128.028 679.813 134.499 680.414 140.749 680.424C149.255 680.437 157.761 680.21 166.264 680.014C162.583 664.421 160.606 648.227 157.891 632.428L142.732 545.587L133.047 490.81C130.683 477.832 127.129 464.162 127.02 450.943C126.937 440.917 131.496 431.069 138.534 424.026C144.1 418.456 150.616 415.542 158.28 414.014C166.905 412.294 175.745 412.498 184.493 412.309L211.905 411.639L311.893 410.049C306.84 386.23 303.041 362.105 301.675 337.776C300.483 316.558 300.815 295.315 301.843 274.099C302.256 265.569 302.266 256.612 304.221 248.27C305.265 243.812 306.919 239.483 310.077 236.074C318.883 226.567 332.417 226.403 344.423 225.886C349.593 213.334 355.553 201.144 365.772 191.896C372.934 185.416 381.044 180.908 390.056 177.53C411.654 169.433 435.425 166.827 458.238 164.663C506.662 160.067 554.921 160.115 603.465 162.555C606.267 154.54 610.006 147.131 615.351 140.502C631.708 120.219 657.583 110.406 682.841 107.699ZM824.029 331.659C813.247 333.523 803.148 338.323 793.418 343.189C791.034 371.59 788.653 399.656 779.498 426.89C786.277 425.756 792.863 424.211 799.436 422.187C818.823 414.931 833.305 402.667 842.043 383.672C847.367 372.097 850.624 356.606 845.853 344.312C843.864 339.191 840.387 335.189 835.221 333.139C831.904 331.822 827.561 331.129 824.029 331.659Z"/>
	<path fill="#28BFBD" d="M410.76 765.134C413.549 765.637 416.085 766.349 418.277 768.212L418.359 769.418C418.226 769.482 418.094 769.548 417.96 769.611C416.651 770.227 415.442 770.782 414.024 770.028C412.336 769.131 411.454 766.796 410.76 765.134Z"/>
	<path fill="#FEF6A7" d="M710.369 506.778L723.144 501.912C722.985 504.339 722.668 506.855 722.73 509.283C720.2 509.415 717.379 509.769 714.872 509.415C712.734 509.113 711.702 508.464 710.369 506.778Z"/>
	<path fill="#DADAD9" d="M688.189 651.182C688.066 649.609 688.015 648.164 689.293 647.037C692.193 644.479 698.441 645.684 701.955 646.272C701.079 648.117 700.796 649.168 698.726 649.872C695.512 650.964 691.567 651.072 688.189 651.182Z"/>
	<path fill="#127640" d="M662.915 127.563C672.166 122.726 685.979 122.835 696.273 122.14C693.312 123.757 689.697 125.186 686.972 127.085C683.472 123.96 668.757 128.776 662.915 127.563Z"/>
	<path fill="#DC7E0C" d="M671.551 628.445C670.845 627.481 670.25 626.599 669.859 625.461C667.976 619.981 668.24 608.532 670.827 603.354C671.986 607.579 673.432 611.401 676.455 614.689C673.701 619.348 672.321 623.047 671.551 628.445Z"/>
	<path fill="#FEFDFD" d="M584.448 502.149C587.809 503.621 591.283 504.865 594.713 506.17C595.553 509.971 596.942 513.059 598.703 516.508L598.13 517.307C593.837 516.515 589.672 515.166 585.57 513.699C584.818 509.788 584.498 506.131 584.448 502.149Z"/>
	<path fill="#A4A3A3" d="M703.278 757.02C708.641 762.551 710.042 769.246 709.96 776.717C709.921 780.327 709.663 783.924 709.369 787.521C707.4 785.016 705.446 782.497 703.421 780.037C705.193 774.934 704.16 762.484 703.278 757.02Z"/>
	<path fill="#2EA474" d="M668.946 145.822C675.459 140.528 681.927 135.539 689.092 131.129C688.808 135.514 688.682 141.447 687.186 145.562C681.563 147.008 674.681 146.315 668.946 145.822Z"/>
	<path fill="#DC7E0C" d="M688.552 491.634C697.146 492.591 705.262 493.535 713.283 496.993C704.812 500.331 696.177 501.539 687.138 502.082C688.928 498.259 689.242 495.836 688.552 491.634Z"/>
	<path fill="#A4A3A3" d="M322.936 752.832C326.516 752.483 329.991 752.458 333.584 752.572C331.272 752.746 328.956 752.955 326.638 753.039C325.827 762.053 324.485 775.16 330.071 782.86L323.911 790.552C321.401 777.431 321.294 766.072 322.936 752.832Z"/>
	<path fill="#F9B013" d="M702.508 508.386L710.369 506.778C711.702 508.464 712.734 509.113 714.872 509.415C717.379 509.769 720.2 509.415 722.73 509.283C722.587 511.133 722.457 512.452 720.929 513.742C715.594 518.246 703.457 518.858 696.776 519.354C699.127 515.802 701.043 512.391 702.508 508.386Z"/>
	<path fill="#A4A3A3" d="M325.103 796.95C327.059 793.787 329.144 790.833 331.42 787.892C333.404 795.342 335.619 802.992 339.095 809.891C336.637 813.238 334.397 816.634 332.252 820.19C328.793 812.952 327.029 804.705 325.103 796.95Z"/>
	<path fill="#A4A3A3" d="M702.297 784.481C704.755 787.08 706.662 789.944 708.638 792.916C706.591 801.491 704.452 809.993 701.621 818.35C699.45 814.549 697.251 811.183 694.17 808.039C697.054 800.054 700.371 792.846 702.297 784.481Z"/>
	<path fill="#2EA474" d="M662.915 127.563C668.757 128.776 683.472 123.96 686.972 127.085C677.889 132.468 670.375 138.973 661.899 145.094C660.99 142.347 660.203 139.539 659.504 136.731C658.827 134.012 658.256 130.964 659.769 128.443C660.939 127.653 661.556 127.626 662.915 127.563Z"/>
	<path fill="#A4A3A3" d="M342.094 812.926C342.167 813.051 342.242 813.176 342.313 813.302C346.066 819.896 347.697 827.872 354.288 832.489C350.954 836.636 348.395 841.099 345.781 845.717C342.175 839.358 338.729 832.965 335.455 826.428C337.352 821.687 339.619 817.376 342.094 812.926Z"/>
	<path fill="#D1312E" d="M575.775 572.513C577.44 572.477 579.509 572.32 581.12 572.669C582.254 572.914 582.755 573.272 583.375 574.226C586.383 578.853 587.04 592.517 585.944 597.961C584.795 598.724 583.368 598.586 582.005 598.703C579.874 598.532 577.934 597.714 576.356 596.265C572.931 593.118 571.769 587.798 571.801 583.329C571.831 579.085 572.795 575.571 575.775 572.513Z"/>
	<path fill="#FEFDFD" d="M130.254 696.904L137.802 696.386L139.707 704.213C142.43 711.943 145.477 721.923 151.589 727.705C153.276 729.301 162.193 734.991 162.193 734.993C162.261 735.217 162.114 735.454 162.074 735.685C156.732 735.086 151.364 733.394 146.908 730.354C135.68 722.693 132.69 709.414 130.254 696.904Z"/>
	<path fill="#A4A3A3" d="M691.989 811.287C694.881 815.29 697.117 819.15 699.033 823.699C695.123 832.023 690.557 839.562 685.718 847.353C682.641 842.872 679.969 838.131 676.361 834.039C682.567 829.649 688.43 818.074 691.989 811.287Z"/>
	<path fill="#9F1917" d="M464.538 783.66C467.025 784.422 469.508 785.25 472.041 785.845C465.373 799.049 457.826 811.871 452.003 825.493C450.452 820.221 447.393 815.379 444.374 810.834L444.725 810.525C450.264 805.732 461.828 790.516 464.538 783.66Z"/>
	<path fill="#2EA474" d="M652.588 130.871L653.234 130.92C655.39 132.49 657.337 145.303 658.037 148.782C651.879 153.171 647.54 160.483 641.093 164.342L640.23 163.843C636.942 157.838 634.658 151.173 631.841 144.924C638.358 139.537 645.322 135.142 652.588 130.871Z"/>
	<path fill="#DADAD9" d="M568.859 616.424C566.766 616.019 564.885 615.537 563.043 614.421C557.224 610.899 554.274 604.945 552.78 598.537C550.106 587.072 549.996 571.523 556.597 561.275C560.071 555.882 565.496 552.285 571.813 551.157C574.842 550.617 579.584 550.111 582.166 552.216C583.557 553.35 583.675 554.623 583.873 556.274C577.108 556.446 569.259 556.337 564.285 561.73C557.326 569.275 557.452 582.793 558.052 592.325C558.317 596.546 559.005 602.232 560.998 606.011C562.554 608.962 568.284 613.999 568.859 616.424Z"/>
	<path fill="#B86307" d="M793.514 311.299C810.259 306.93 826.638 304.307 842.383 313.448C847.819 316.603 857.088 323.591 858.621 330.001C858.783 330.677 858.748 331.359 858.732 332.046C853 325.166 846.661 319.524 838.01 316.793C822.037 311.751 807.54 318.083 793.52 325.467L793.514 311.299Z"/>
	<path fill="#2EA474" d="M681.662 149.833L682.832 150.334C683.803 154.198 675.065 166.024 673.384 170.516C663.294 170.316 653.144 171.303 643.012 171.142C649.784 163.863 656.004 156.834 663.771 150.526C669.72 150.512 675.716 150.097 681.662 149.833Z"/>
	<path fill="#2EA474" d="M638.753 176.067C648.555 175.168 658.432 175.845 668.244 174.84C664.107 184.202 651.335 192.151 642.081 195.752C636.737 197.831 630.97 199.035 625.224 199.036C629.046 190.841 633.891 183.642 638.753 176.067Z"/>
	<path fill="#F9B013" d="M583.873 556.274L584.435 563.673C579.148 563.185 572.556 561.891 568.202 565.776C563.958 569.563 562.813 576.557 562.722 582.009C562.602 589.266 564.13 597.867 569.514 603.119C573.328 606.839 578.555 608.362 583.797 608.233C585.001 608.203 586.213 608.052 587.408 607.916L589.031 618.287C582.027 618.288 575.683 618.242 568.859 616.424C568.284 613.999 562.554 608.962 560.998 606.011C559.005 602.232 558.317 596.546 558.052 592.325C557.452 582.793 557.326 569.275 564.285 561.73C569.259 556.337 577.108 556.446 583.873 556.274Z"/>
	<path fill="#B86307" d="M694.652 528.232C703.174 526.67 711.712 525.012 720.137 522.987C719.178 532.387 718.314 541.841 716.965 551.193C708.693 551.373 700.329 551.41 692.313 553.738C692.5 546.9 696.388 533.955 694.652 528.232Z"/>
	<path fill="#2EA474" d="M628.068 148.835L628.584 149.083C632.027 154.273 635.371 163.473 637.279 169.423C629.707 177.59 624.329 188.473 618.979 198.153C618.379 199.134 618.297 199.3 617.281 199.811C616.799 199.669 616.64 199.661 616.188 199.308C613.686 197.351 612.119 192.874 611.781 189.837C610.458 177.954 620.867 158.068 628.068 148.835Z"/>
	<defs>
		<linearGradient id="gradient_0" gradientUnits="userSpaceOnUse" x1="579.33325" y1="583.57855" x2="613.50653" y2="589.80127">
			<stop offset="0" stop-color="#FFFCBB"/>
			<stop offset="1" stop-color="#FEF5FF"/>
		</linearGradient>
	</defs>
	<path fill="url(#gradient_0)" d="M588.97 523.143L594.797 524.746C597.251 533.848 597.247 544.858 598.133 554.288C599.558 569.465 601.284 584.583 602.889 599.736C603.356 604.149 602.597 609.897 604.029 614.018C604.132 615.438 604.177 616.718 603.998 618.142C603.357 620.256 604.232 623.77 604.446 625.989C605.012 631.884 606.792 647.021 602.096 651.509C601.168 646.107 600.888 640.418 600.353 634.952L597.222 602.027C594.762 575.708 591.831 549.421 588.97 523.143Z"/>
	<path fill="#D1312E" d="M656.966 755.023C657.133 755.164 657.11 755.436 657.159 755.649C652.029 761.259 646.335 766.207 641.534 772.146C632.848 782.891 625.606 794.702 617.069 805.561C611.513 812.627 604.993 818.89 599.398 825.929C590.08 837.65 584.879 850.701 586.863 865.779L587.003 866.771L586.444 866.689C582.965 857.939 582.665 848.54 585.082 839.464C586.262 835.033 588.165 831.053 590.739 827.265C597.637 817.113 607.146 808.847 614.693 799.162C622.277 789.428 627.517 777.664 636.347 768.911C642.223 763.087 649.864 759.13 656.966 755.023Z"/>
	<path fill="#DC7E0C" d="M671.585 629.015C673.164 635.801 675.52 640.363 679.838 645.808C680.786 653.512 682.312 658.701 686.188 665.401C677.049 666.063 667.769 665.685 658.603 665.853C645.577 666.091 631.595 667.152 618.677 665.455C615.567 665.047 612.919 664.351 610.189 662.735C612.37 661.628 615.824 661.761 618.274 661.515C630.698 660.271 653.055 660.472 663.268 654.352C672.046 649.092 669.486 637.816 671.482 629.419C671.514 629.284 671.551 629.15 671.585 629.015Z"/>
	<path fill="#D1312E" d="M373.252 752.609C376.722 752.072 380.524 752.316 384.045 752.284C399.26 763.989 404.657 772.692 416.341 786.743C423.148 794.929 430.34 802.812 436.29 811.668C441.046 818.748 447.467 828.716 445.717 837.593L445.257 837.793C441.965 833.71 439.116 828.006 435.671 823.525C429.17 815.068 421.69 807.385 415.305 798.828C401.274 780.025 394.827 765.037 373.252 752.609Z"/>
	<path fill="#D1312E" d="M433.401 773.987C443.749 777.418 454.05 780.679 464.538 783.66C461.828 790.516 450.264 805.732 444.725 810.525L444.374 810.834C436.65 800.688 428.234 791.212 419.19 782.222C424.121 779.844 428.747 776.86 433.401 773.987Z"/>
	<path fill="#FEFDFD" d="M793.286 291.167C793.338 289.454 793.182 287.826 794.197 286.361C806.41 279.211 830.318 279.29 843.785 282.811C860.957 287.302 876.336 298.832 885.301 314.18C893.888 328.881 895.548 344.708 895.549 361.449C890.056 357.829 890.245 346.523 888.889 340.59C884.878 323.039 872.58 306.561 857.316 297.1C837.214 284.64 815.512 286.052 793.286 291.167Z"/>
	<path fill="#9F1917" d="M603.287 779.565C606.923 778.796 612.99 782.975 616.325 784.708C607.133 798.745 594.818 810.39 585.621 824.29C580.487 816.216 574.965 796.423 571.964 786.76C582.48 784.545 592.877 782.245 603.287 779.565Z"/>
	<path fill="#FEF6A7" d="M594.713 506.17C619.954 513.217 650.478 512.89 676.397 510.952C685.127 510.299 693.792 509.114 702.508 508.386C701.043 512.391 699.127 515.802 696.776 519.354C664.137 522.895 630.505 523.273 598.13 517.307L598.703 516.508C596.942 513.059 595.553 509.971 594.713 506.17Z"/>
	<path fill="#9F1917" d="M453.975 529.085C477.781 552.892 508.67 563.479 542.022 563.526L545.397 563.501C544.63 567.979 543.997 572.528 542.735 576.897L542.383 575.862C539.334 574.237 529.854 574.687 525.743 574.245C515.199 573.112 505.088 570.975 495.027 567.582C486.077 564.563 477.366 560.109 469.577 554.773C465.035 551.661 462.748 547.248 457.205 545.511C456.044 540.047 454.952 534.586 453.975 529.085Z"/>
	<path fill="#127640" d="M697.946 126.615C695.017 151.464 688.152 177.782 667.522 193.946C657.021 202.174 642.909 206.985 629.515 205.361C627.269 205.088 625.067 204.534 622.88 203.966L625.224 199.036C630.97 199.035 636.737 197.831 642.081 195.752C651.335 192.151 664.107 184.202 668.244 174.84C672.705 174.814 676.927 174.772 681.15 173.152L681.42 172.486C679.346 170.76 675.974 170.662 673.384 170.516C675.065 166.024 683.803 154.198 682.832 150.334L681.662 149.833C683.986 148.933 687.139 149.935 689.744 149.059L690.011 148.222C689.17 147.1 688.295 146.387 687.186 145.562C688.682 141.447 688.808 135.514 689.092 131.129C692.019 129.582 694.926 127.975 697.946 126.615Z"/>
	<path fill="#F9B013" d="M592.676 496.829C618.183 486.84 661.366 489.187 688.552 491.634C689.242 495.836 688.928 498.259 687.138 502.082C655.481 504.734 623.441 505.985 592.676 496.829Z"/>
	<path fill="#FEFDFD" d="M746.393 480.63C789.455 495.683 825.11 530.286 844.839 571.05C849.434 580.543 853.458 590.981 855.668 601.306C852.792 598.348 847.999 586.399 845.48 581.761C823.766 541.789 784.07 499.717 739.447 486.577C741.752 484.674 744.35 482.797 746.393 480.63Z"/>
	<path fill="#587A7F" d="M547.048 665.694C549.235 665.389 551.577 665.422 553.79 665.302C544.491 670.119 534.491 673.578 525.013 678.07C506.919 686.644 488.686 696.502 469.914 703.443L469.159 703.533C467.16 701.673 466.022 695.257 464.717 692.388L464.416 691.735C466.371 690.892 468.358 690.06 470.178 688.947C477.725 684.331 480.774 677.81 482.819 669.52C504.259 669.419 525.694 667.476 547.048 665.694Z"/>
	<path fill="#A4A3A3" d="M756.301 574.423C765.345 586.71 766.122 600.144 763.87 614.859C761.354 631.302 755.565 652.292 741.382 662.648C731.585 669.8 719.679 668.725 708.367 666.891C701.577 665.79 694.766 663.393 690.788 657.389C690.19 656.486 689.723 655.488 689.31 654.49C696.036 657.401 705.078 659.233 712.378 659.648C720.301 660.099 727.563 657.708 733.499 652.394C753.214 634.743 754.909 599.244 756.301 574.423Z"/>
	<path fill="#A4A3A3" d="M357.847 834.411C368.395 852.21 386.607 866.2 406.762 871.453C419.49 874.77 430.319 873.56 442.269 868.408C439.876 873.922 436.266 879.109 431.462 882.783C423.409 888.942 412.857 890.239 403.048 888.85C379.726 885.546 363.171 868.404 349.593 850.534C351.614 844.4 354.12 839.687 357.847 834.411Z"/>
	<path fill="#9F1917" d="M727.682 537.287C727.849 531.564 728.462 525.773 729.176 520.097C729.35 520.265 729.519 520.437 729.697 520.599C733.365 523.941 744.726 527.846 749.91 530.763C775.464 545.142 798.099 568.604 807.754 596.786C803.311 598.89 798.294 600.205 793.595 601.644C779.148 568.548 759.29 552.71 727.682 537.287Z"/>
	<path fill="#9F1917" d="M760.69 656.348C762.612 657.382 764.54 658.414 766.497 659.379C782.874 667.462 805.317 667.7 822.395 661.73C843.605 654.315 849.375 641.327 858.443 622.706C858.815 637.382 853.116 653.085 842.957 663.77C830.968 676.38 813.52 682.349 796.393 682.649C779.143 682.951 764.299 677.717 749.216 669.794C753.976 665.907 757.555 661.631 760.69 656.348Z"/>
	<path fill="#A4A3A3" d="M673.261 837.344C676.806 841.922 679.389 846.7 681.921 851.898C667.905 869.182 650.851 885.634 627.66 888.13C617.248 889.25 605.68 886.799 597.421 880.083C592.768 876.298 590.011 871.22 589.566 865.206C589.429 863.349 589.624 861.477 589.761 859.626C590.46 862.098 591.273 863.95 593.109 865.784C597.628 870.299 604.819 872.049 611.061 872.033C634.207 871.973 657.646 852.949 673.261 837.344Z"/>
	<path fill="#F9B013" d="M462.931 524.481C504.712 532.553 538.022 535.547 580.417 530.783L581.157 541.551C578.396 541.632 575.641 541.863 572.887 542.06C561.973 543.871 554.576 552.62 543.28 553.616C514.039 556.194 484.837 542.95 462.931 524.481Z"/>
	<path fill="#FEFDFD" d="M360.42 234.075C364.554 223.576 367.287 212.745 375.735 204.616C404.591 176.848 521.224 177.142 561.588 178.024C566.883 178.14 600.457 178.135 602.731 180.51C601.675 181.998 601.117 182.809 599.203 183.187C591.573 184.693 568.167 183.013 558.56 183.07C518.368 183.309 430.409 185.778 395.996 202.597C388.407 206.306 382.014 211.965 377.075 218.784C375.598 220.823 374.164 222.881 373.019 225.129C371.605 227.952 370.298 230.991 368.469 233.563L360.42 234.075Z"/>
	<path fill="#B86307" d="M373.019 225.129C380.074 223.877 387.364 223.719 394.513 223.215C409.387 222.168 424.139 221.395 439.035 220.865C443.641 220.701 448.226 220.135 452.833 219.992C458.442 219.818 464.067 220.104 469.674 219.85C474.725 219.62 479.735 219.074 484.797 218.986C504.888 218.635 525.016 219.06 545.114 219.013C550.791 219 556.445 218.44 562.102 218.434C566.446 218.429 570.798 218.924 575.147 218.993C586.69 219.176 598.26 218.978 609.804 218.921L607.745 227.393C579.829 225.711 551.319 226.296 523.345 226.567C471.589 227.068 420.025 228.847 368.469 233.563C370.298 230.991 371.605 227.952 373.019 225.129Z"/>
	<path fill="#B86307" d="M761.093 465.418C761.467 465.576 761.751 465.717 762.136 465.815C766.62 466.955 773.132 465.389 777.647 464.622C797.882 461.184 817.271 456.344 835.419 446.464C852.015 437.43 869.294 421.174 879.256 405.031C886.303 393.61 891.711 379.156 895.471 366.265C894.826 394.879 883.172 422.381 862.433 442.295C839.315 464.494 810.636 473.99 779.601 478.028C774.382 475.481 763.702 471.439 760.083 467.382L760.026 466.564L761.093 465.418Z"/>
	<path fill="#1B4B4A" d="M418.958 435.726C422.764 439.486 426.455 442.971 428.02 448.279C430.427 456.443 431.054 465.471 432.471 473.876L441.411 524.891L458.84 620.211C461.553 634.89 467.05 656.169 467.218 670.442C467.252 673.281 466.538 675.506 464.468 677.509C462.932 678.995 461.112 680.171 459.338 681.347C458.663 672.601 456.82 664.173 455.261 655.561L449.048 620.855L428.219 505.605C424.048 482.465 418.76 459.342 418.958 435.726Z"/>
	<path fill="#1B4B4A" d="M563.432 665.029C565.27 668.218 564.028 682.134 563.991 686.842C554.116 693.181 543.084 698.049 532.657 703.415C518.878 710.507 505.463 718.222 491.487 724.943C484.558 728.275 477.282 730.813 470.281 733.992C469.128 725.477 469.484 716.644 469.481 708.06C478.497 703.505 487.875 699.511 497.055 695.291C509.674 689.49 522.231 683.518 534.91 677.852C544.4 673.611 554.172 669.748 563.432 665.029Z"/>
	<path fill="#B86307" d="M686.999 188.52C705.232 193.139 718.187 199.414 728.073 216.07C731.7 222.18 734.122 228.447 736.575 235.081C712.082 232.581 687.602 230.803 663.006 229.732C646.972 229.034 630.664 229.237 614.714 227.518C615.682 224.39 616.57 221.207 617.631 218.111L619.926 210.974C622.322 211.474 624.724 211.978 627.142 212.355C648.397 215.671 664.99 206.402 681.526 194.221C683.481 192.394 685.258 190.552 686.999 188.52Z"/>
	<path fill="#DC7E0C" d="M681.526 194.221C686.873 195.7 693.003 198.023 696.028 203.017C697.325 205.157 697.686 208.065 696.998 210.47C696.006 213.938 693.07 216.158 690.006 217.75C674.164 225.984 651.22 222.814 634.071 221.122C629.443 220.666 623.323 220.687 618.983 219.177C618.303 218.941 618 218.689 617.631 218.111L619.926 210.974C622.322 211.474 624.724 211.978 627.142 212.355C648.397 215.671 664.99 206.402 681.526 194.221Z"/>
	<path fill="#FEFDFD" d="M181.31 666.981C177.585 648.539 174.679 629.933 171.476 611.394L157.062 529.142L148.889 483.608C147.176 474.255 144.802 464.658 144.331 455.146C144.056 449.585 145.206 443.622 148.453 438.982C151.906 434.048 157.089 431.206 162.966 430.327C175.657 428.429 189.404 429.584 202.241 429.488L268.13 428.565L350.184 427.243C366.982 426.857 383.938 425.631 400.724 426.448C405.205 426.666 409.032 427.23 412.738 429.984C414.3 431.144 415.694 432.456 417.039 433.858C410.813 434.555 403.08 431.864 395.939 432.387C373.449 432.111 350.99 432.829 328.512 433.347L242.813 435.245L192.365 436.16C184.077 436.302 175.605 435.841 167.376 436.863C163.649 437.326 160.269 438.793 157.585 441.476C154.269 444.79 153.197 449.441 153.358 453.984C153.646 462.079 155.452 470.218 156.827 478.182L162.997 513.829L180.898 615.824C183.92 633.011 187.487 650.267 189.908 667.532L181.31 666.981Z"/>
	<path fill="#A4A3A3" d="M445.169 482.007C474.179 490.849 525.139 491.15 556.277 489.923C566.977 489.501 577.89 486.902 588.584 488.34C585.157 489.288 580.54 491.779 578.378 494.612C573.288 501.283 576.527 513.694 577.539 521.44C548.617 522.722 519.786 522.778 491.023 519.013C477.538 517.248 464.149 514.338 450.815 511.689C448.495 501.889 446.697 491.958 445.169 482.007Z"/>
	<path fill="#FEFDFD" d="M683.59 579.66C683.819 578.265 684.036 576.854 684.356 575.477C685.574 570.23 688.102 565.372 692.895 562.58C703.803 556.226 728.393 557.751 740.134 560.74C748.4 562.844 752.095 567.437 756.301 574.423C754.909 599.244 753.214 634.743 733.499 652.394C727.563 657.708 720.301 660.099 712.378 659.648C705.078 659.233 696.036 657.401 689.31 654.49L688.189 651.182C691.567 651.072 695.512 650.964 698.726 649.872C700.796 649.168 701.079 648.117 701.955 646.272C706.822 646.917 716.127 648.858 720.555 646.235C721.534 645.656 721.519 645.463 721.729 644.425C721.391 643.78 721.065 643.273 720.466 642.834C712.774 637.203 694.706 638.289 685.755 639.6C685.352 639.223 684.944 638.85 684.562 638.451C680.364 634.07 680.448 629.392 680.495 623.701C680.748 623.389 680.999 623.076 681.265 622.776C693.128 609.36 710.314 621.81 724.835 620.463C726.777 620.283 728.088 619.948 729.38 618.454L729.115 617.101C724.598 610.827 703.008 609.404 695.301 609.432C691.832 609.445 688.352 610.458 684.882 610.238C683.596 610.157 682.303 609.842 681.28 609.016C679.914 607.913 679.321 606.191 679.044 604.52C678.355 600.359 678.833 595.483 681.472 592.055C691.849 578.575 719.88 592.418 731.852 590.556C733.316 590.328 733.948 589.929 734.8 588.741C734.643 587.154 734.224 586.294 732.935 585.296C725.294 579.378 693.285 578.611 683.59 579.66Z"/>
	<path fill="#A4A3A3" d="M751.289 244.132C759.489 245.494 767.774 246.585 775.915 248.252C778.105 306.746 783.078 420.146 740.857 465.334C732.661 474.107 723.437 480.806 713.23 487.041C695.12 482.804 677.332 480.477 658.709 480.423C670.94 477.47 683.387 472.586 694.301 466.332C722.378 450.242 738.794 425.458 747.249 394.526C758.6 352.999 756.47 308.143 753.568 265.65C753.303 261.78 752.877 246.909 751.289 244.132Z"/>
	<path fill="#F9B013" d="M793.286 291.167C815.512 286.052 837.214 284.64 857.316 297.1C872.58 306.561 884.878 323.039 888.889 340.59C890.245 346.523 890.056 357.829 895.549 361.449L895.471 366.265C891.711 379.156 886.303 393.61 879.256 405.031C869.294 421.174 852.015 437.43 835.419 446.464C817.271 456.344 797.882 461.184 777.647 464.622C773.132 465.389 766.62 466.955 762.136 465.815C761.751 465.717 761.467 465.576 761.093 465.418C765.138 459.007 768.784 452.591 772.055 445.76C784.131 442.907 796.115 441.614 807.863 437.216C830.076 428.901 847.876 411.886 857.572 390.252C866.75 369.771 866.647 352.666 858.732 332.046C858.748 331.359 858.783 330.677 858.621 330.001C857.088 323.591 847.819 316.603 842.383 313.448C826.638 304.307 810.259 306.93 793.514 311.299L793.286 291.167Z"/>
	<path fill="#376267" d="M395.939 432.387C403.08 431.864 410.813 434.555 417.039 433.858L418.958 435.726C418.76 459.342 424.048 482.465 428.219 505.605L449.048 620.855L455.261 655.561C456.82 664.173 458.663 672.601 459.338 681.347C456.692 682.857 454.025 684.459 451.129 685.446C446.406 687.055 441.568 687.229 436.621 687.405C424.481 687.836 412.225 687.502 400.074 687.498L327.327 687.621L257.481 688.171C238.655 688.443 219.519 689.165 200.706 688.434C197.525 688.31 193.604 688.121 190.767 686.594C185.375 683.69 183.316 676.739 181.816 671.241C207.827 672.24 233.789 671.848 259.803 671.614L348.735 670.917L403.502 670.533C413.716 670.505 424.391 671.281 434.516 669.984C438.458 669.479 441.558 668.67 444.005 665.265C448.087 659.585 446.131 651.238 445.064 644.857C437.256 598.187 427.625 551.713 418.848 505.211L412.318 468.87C410.797 460.526 409.685 451.279 406.442 443.417C404.402 438.47 400.138 435.38 395.939 432.387Z"/>
	<path fill="#FEFDFD" d="M329.195 409.293C326.821 400.508 325.343 391.451 323.883 382.478C317.84 345.341 317.037 307.957 319.259 270.466C319.55 265.555 319.29 260.603 319.811 255.708C320.131 252.708 320.977 249.099 323.546 247.208C330.253 242.271 355.821 241.934 365.321 241.06C430.754 235.039 496.306 233.047 562 233.657C598.616 233.997 635.125 234.952 671.674 237.281C689.017 238.386 706.31 239.728 723.615 241.3C732.355 242.094 741.403 242.548 750.027 244.102C749.465 245.292 749.492 245.674 748.195 246.132C741.397 248.532 709.734 245.112 700.701 244.579C689.378 243.912 677.913 243.291 666.579 242.947C655.631 242.616 644.657 243.075 633.705 242.852L578.462 241.911C569.388 241.716 560.386 240.972 551.291 240.96C540.812 240.946 530.436 241.753 519.982 241.942C510.046 242.121 500.08 241.611 490.149 241.95C459.919 242.982 429.965 245.584 399.889 248.727C388.043 249.966 352.213 250.976 346.312 261.827C337.133 278.703 341.765 346.781 343.951 368.69C345.273 381.947 348.195 395.375 347.855 408.721C341.676 409.179 335.392 409.141 329.195 409.293Z"/>
	<path fill="#FEFDFD" d="M589.761 859.626C590.244 856.264 590.792 852.892 591.74 849.625C596.643 832.733 610.412 821.652 621.165 808.587C625.669 803.115 629.6 797.16 633.859 791.496C643.92 778.116 656.217 764.965 671.074 756.924C678.351 752.986 688.443 749.485 696.703 752.157C699.267 752.986 702.001 754.569 703.278 757.02C704.16 762.484 705.193 774.934 703.421 780.037C692.36 772.062 683.602 770.971 670.214 771.963C683.472 774.255 691.737 775.75 702.297 784.481C700.371 792.846 697.054 800.054 694.17 808.039C685.602 799.774 675.006 794.425 662.876 794.644C660.565 794.686 658.237 794.878 655.938 795.106C669.599 797.723 682.052 800.788 691.989 811.287C688.43 818.074 682.567 829.649 676.361 834.039C662.767 821.041 652.455 816.654 633.843 814.099C649.385 819.402 662.012 825.01 673.261 837.344C657.646 852.949 634.207 871.973 611.061 872.033C604.819 872.049 597.628 870.299 593.109 865.784C591.273 863.95 590.46 862.098 589.761 859.626Z"/>
	<path fill="#DC7E0C" d="M602.731 180.51C601.944 188.215 603.57 195.955 608.568 202.065C610.255 204.127 612.319 205.735 614.457 207.299C612.873 211.096 611.618 215.264 609.804 218.921C598.26 218.978 586.69 219.176 575.147 218.993C570.798 218.924 566.446 218.429 562.102 218.434C556.445 218.44 550.791 219 545.114 219.013C525.016 219.06 504.888 218.635 484.797 218.986C479.735 219.074 474.725 219.62 469.674 219.85C464.067 220.104 458.442 219.818 452.833 219.992C448.226 220.135 443.641 220.701 439.035 220.865C424.139 221.395 409.387 222.168 394.513 223.215C387.364 223.719 380.074 223.877 373.019 225.129C374.164 222.881 375.598 220.823 377.075 218.784C382.014 211.965 388.407 206.306 395.996 202.597C430.409 185.778 518.368 183.309 558.56 183.07C568.167 183.013 591.573 184.693 599.203 183.187C601.117 182.809 601.675 181.998 602.731 180.51Z"/>
	<path fill="#FEFDFD" d="M495.47 190.071C496.964 189.999 498.556 189.874 500.043 190.068C502.884 190.438 505.756 192.077 507.429 194.419C508.931 196.522 509.486 199.203 508.911 201.721C507.976 205.816 505.327 207.607 501.942 209.579C499.815 210.14 498.053 210.34 495.88 209.841C493.241 209.234 490.999 207.854 489.581 205.503C488.199 203.212 487.854 200.448 488.514 197.867C489.56 193.779 492.066 192.096 495.47 190.071Z"/>
	<path fill="#FEFDFD" d="M333.584 752.572C353.975 751.668 367.918 750.875 383.85 765.612C396.283 777.113 403.757 792.104 414.014 805.308C422.35 816.038 432.825 825.526 439.526 837.426C442.577 842.843 444.25 848.841 444.457 855.059C444.609 859.617 443.878 864.14 442.269 868.408C430.319 873.56 419.49 874.77 406.762 871.453C386.607 866.2 368.395 852.21 357.847 834.411C366.36 825.188 377.066 819.802 388.372 814.842C390.402 813.952 395.312 812.422 396.309 810.363C395.344 809.721 394.369 809.764 393.246 809.791C388.809 809.9 384.996 811.778 381.043 813.578C370.262 818.485 362.544 824.039 354.288 832.489C347.697 827.872 346.066 819.896 342.313 813.302C342.242 813.176 342.167 813.051 342.094 812.926C349.448 804.872 360.372 795.606 371.344 793.429C373.284 793.044 377.054 792.776 378.521 791.426C379.414 790.605 379.587 790.129 379.587 788.975C378.785 788.261 377.829 788.183 376.781 788.183C362.033 788.183 348.77 799.954 339.095 809.891C335.619 802.992 333.404 795.342 331.42 787.892C335.838 782.794 342.11 778.094 348.17 775.137C351.751 773.39 360.614 772.34 362.43 769.857L361.824 768.445C361.145 767.86 360.626 767.408 359.705 767.248C351.286 765.785 336.358 777.889 330.071 782.86C324.485 775.16 325.827 762.053 326.638 753.039C328.956 752.955 331.272 752.746 333.584 752.572Z"/>
	<path fill="#9F1917" d="M658.583 675.396C677.723 675.224 697.968 673.859 716.78 677.772C710.343 686.106 704.011 694.71 696.701 702.302C659.189 741.258 607.127 766.646 553.643 773.489C515.362 778.386 476.343 775.438 439.845 762.495C434.204 760.495 428.505 758.442 423.028 756.027C417.931 753.779 412.945 751.19 407.726 749.242C431.186 748.613 456.678 749.895 479.555 745.079C489.118 750.484 517.64 747.505 529 746.161C579.174 740.226 627.065 715.325 658.583 675.396Z"/>
	<path fill="#F9B013" d="M594.797 524.746C627.644 532.417 661.341 532.221 694.652 528.232C696.388 533.955 692.5 546.9 692.313 553.738C685.855 556.275 680.816 561.551 678.098 567.889C675.682 573.522 675.395 579.128 676.445 585.113C672.874 591.434 671.506 596.162 670.827 603.354C668.24 608.532 667.976 619.981 669.859 625.461C670.25 626.599 670.845 627.481 671.551 628.445L671.585 629.015C671.551 629.15 671.514 629.284 671.482 629.419C669.486 637.816 672.046 649.092 663.268 654.352C653.055 660.472 630.698 660.271 618.274 661.515C615.824 661.761 612.37 661.628 610.189 662.735C609.375 662.321 608.599 661.899 607.845 661.38C604.118 658.818 602.829 655.87 602.096 651.509C606.792 647.021 605.012 631.884 604.446 625.989C604.232 623.77 603.357 620.256 603.998 618.142C604.177 616.718 604.132 615.438 604.029 614.018C602.597 609.897 603.356 604.149 602.889 599.736C601.284 584.583 599.558 569.465 598.133 554.288C597.247 544.858 597.251 533.848 594.797 524.746Z"/>
	<path fill="#FEFDFD" d="M665.371 580.976L665.741 581.733C651.459 605.871 631.624 625.771 610.579 644.032C610.193 643.08 610.313 642.922 610.463 641.913C613.622 620.663 648.472 593.651 665.371 580.976Z"/>
	<path fill="#FEFDFD" d="M604.029 614.018C604.176 613.806 604.328 613.597 604.47 613.382C606.811 609.826 608.086 599.91 611.675 594.008C625.521 571.244 648.503 555.994 669.722 540.817C655.326 560.516 623.27 606.403 603.998 618.142C604.177 616.718 604.132 615.438 604.029 614.018Z"/>
	<path fill="#D1312E" d="M730.597 492.814C733.606 490.825 736.516 488.678 739.447 486.577C784.07 499.717 823.766 541.789 845.48 581.761C847.999 586.399 852.792 598.348 855.668 601.306C858.236 608.256 858.767 615.344 858.443 622.706C849.375 641.327 843.605 654.315 822.395 661.73C805.317 667.7 782.874 667.462 766.497 659.379C764.54 658.414 762.612 657.382 760.69 656.348C766.364 643.19 770.717 629.864 774.233 615.983C774.985 613.439 775.36 610.852 775.773 608.238C789.562 610.907 801.726 609.437 813.543 601.442C821.918 595.776 829.403 588.056 831.332 577.864L830.75 576.813C829.063 577.528 827.751 579.896 826.682 581.38C821.883 588.045 814.903 592.962 807.754 596.786C798.099 568.604 775.464 545.142 749.91 530.763C744.726 527.846 733.365 523.941 729.697 520.599C729.519 520.437 729.35 520.265 729.176 520.097C730.803 510.045 732.654 502.989 730.597 492.814Z"/>
	<path fill="#FEFDFD" d="M831.332 577.864L831.589 576.13C832.453 576.76 832.375 577.822 832.528 578.857C833.509 585.462 831.238 593.477 827.213 598.757C819.303 609.133 807.707 615.177 794.839 616.735C788.116 617.549 780.874 617.321 774.233 615.983C774.985 613.439 775.36 610.852 775.773 608.238C789.562 610.907 801.726 609.437 813.543 601.442C821.918 595.776 829.403 588.056 831.332 577.864Z"/>
	<path fill="#376267" d="M420.462 693.439C426.591 692.801 456.598 691.522 460.38 694.698C462.794 696.726 463.585 700.712 464.279 703.633C466.187 713.551 465.983 724.716 465.969 734.809C461.655 735.072 457.274 735.5 452.956 735.529C416.655 735.146 380.301 735.8 344 735.951L237.602 735.977C227.611 736.031 166.831 737.292 162.074 735.685C162.114 735.454 162.261 735.217 162.193 734.993C162.193 734.991 153.276 729.301 151.589 727.705C145.477 721.923 142.43 711.943 139.707 704.213L137.802 696.386C149.147 695.316 160.374 695.427 171.748 695.337C190.441 695.189 209.166 695.304 227.854 694.993L351.066 694.009C374.193 693.855 397.328 693.055 420.462 693.439Z"/>
	<path fill="#1B4B4A" d="M464.279 703.633C466.187 713.551 465.983 724.716 465.969 734.809C461.655 735.072 457.274 735.5 452.956 735.529C452.039 725.117 449.715 714.89 448.833 704.468C452.675 704.543 461.272 705.824 464.279 703.633Z"/>
	<path fill="#587A7F" d="M137.802 696.386C149.147 695.316 160.374 695.427 171.748 695.337C190.441 695.189 209.166 695.304 227.854 694.993L351.066 694.009C374.193 693.855 397.328 693.055 420.462 693.439C428.92 694.05 437.575 693.561 446.061 693.583C447.091 697.173 447.853 700.755 448.546 704.423L214.892 703.242L166.868 703.011C158.476 703.023 147.851 702.229 139.707 704.213L137.802 696.386Z"/>
	<path fill="#D1312E" d="M457.205 545.511C462.748 547.248 465.035 551.661 469.577 554.773C477.366 560.109 486.077 564.563 495.027 567.582C505.088 570.975 515.199 573.112 525.743 574.245C529.854 574.687 539.334 574.237 542.383 575.862L542.735 576.897C541.831 590.713 542.168 606.22 551.854 617.196C558.945 625.232 568.324 627.365 578.563 627.89C582.337 628.084 586.133 628.029 589.91 628.006C590.703 640.993 590.354 659.518 601.051 668.792C612.651 678.85 643.36 675.57 658.583 675.396C627.065 715.325 579.174 740.226 529 746.161C517.64 747.505 489.118 750.484 479.555 745.079C484.367 743.157 489.223 741.262 493.906 739.041C502.164 735.124 567.988 702.268 571.66 698.363C576.095 693.646 575.524 680.846 575.404 674.747C575.291 669 575.695 660.576 571.077 656.427C569.771 655.254 568.15 654.505 566.382 654.424C555.986 653.945 545.117 655.637 534.704 656.176C515.567 657.165 496.407 657.649 477.256 658.275C476.068 647.008 473.711 635.725 471.721 624.568C467.023 598.221 461.511 571.91 457.205 545.511Z"/>
	<path fill="#376267" d="M372.491 437.264C380.279 436.706 392.887 435.321 399.146 440.861C401.746 443.163 402.993 447.359 403.778 450.658C406.905 463.797 408.54 477.548 410.806 490.871L422.628 556.52L434.166 617.336C436.549 629.679 440.264 644.019 440.669 656.426C440.746 658.792 440.777 661.05 438.929 662.79C436.926 664.677 432.95 665.123 430.303 665.307C424.041 665.742 417.643 665.235 411.362 665.263L370.586 665.57L224.956 667.003L194.776 667.499C191.31 653.162 189.275 638.448 186.683 623.933L173.094 548.178L163.01 490.661C160.555 476.782 157.211 463.012 156.998 448.855C157.963 447.364 158.926 445.847 160.172 444.569C163.18 441.483 166.942 440.614 171.076 440.123C178.622 439.226 186.551 439.716 194.159 439.604L239.622 439.035L372.491 437.264Z"/>
	<path d="M207.242 449.614C208.968 449.857 210.658 450.043 212.23 450.853C215.227 452.398 217.809 455.075 218.808 458.34C219.506 460.624 219.365 463.018 218.205 465.125C216.604 468.034 214.001 469.185 210.952 470.074C208.757 469.997 206.63 469.694 204.659 468.655C201.978 467.242 199.877 464.694 199.052 461.771C198.332 459.22 198.598 456.487 200.001 454.219C201.695 451.48 204.212 450.308 207.242 449.614Z"/>
	<path fill="#D1312E" d="M207.094 456.069C207.225 456.099 207.359 456.117 207.487 456.159C208.814 456.588 210.494 457.694 210.983 459.036C211.556 460.605 210.807 461.894 210.163 463.292C210.006 463.284 209.847 463.287 209.69 463.267C208.072 463.06 207.258 462.388 206.337 461.101C206.007 459.116 206.418 457.939 207.094 456.069Z"/>
	<path d="M175.115 450.451C176.621 450.47 178.271 450.418 179.743 450.76C182.667 451.441 185.673 453.775 187.259 456.287C188.654 458.495 189.228 461.137 188.618 463.702C187.761 467.306 185.26 469.04 182.217 470.78C180.904 470.82 179.554 470.879 178.253 470.676C175.009 470.169 171.855 468.257 170.057 465.491C168.551 463.174 168.077 460.398 168.761 457.719C169.713 453.986 172.04 452.349 175.115 450.451Z"/>
	<path fill="#D1312E" d="M175.797 456.632C176.265 456.692 176.734 456.743 177.197 456.831C178.831 457.143 179.862 457.59 180.831 458.995C181.217 460.721 180.789 461.848 180.251 463.5C180.038 463.511 179.826 463.536 179.613 463.532C178.459 463.511 177.186 463.122 176.427 462.196C175.124 460.606 175.534 458.482 175.797 456.632Z"/>
	<path d="M286.999 490.685C287.142 490.667 287.284 490.64 287.428 490.629C305.182 489.308 322.304 494.56 336.217 505.678C350.881 517.396 360.004 534.694 362.065 553.276C363.901 569.838 358.859 586.798 348.424 599.782C338.265 612.421 323.113 620.697 307.007 622.535C290.111 624.125 273.714 620.527 259.974 610.211C244.685 598.732 234.144 581.174 231.453 562.242C229.059 545.394 233.424 528.04 243.748 514.472C254.437 500.422 269.754 493.01 286.999 490.685Z"/>
	<path fill="#28BFBD" d="M315.36 501.692C330.683 507.405 342.812 518.554 349.661 533.476C356.215 547.753 357.711 564.997 352.194 579.848C347.334 592.933 337.192 604.975 324.346 610.78C311.821 616.44 299.198 616.986 285.816 614.698C290.754 611.503 302.173 610.577 309.012 607.065C321.78 600.507 330.356 588.584 334.717 575.114C340.837 556.212 338.102 533.089 326.872 516.56C323.833 512.088 317.801 506.878 315.699 502.445C315.581 502.196 315.473 501.943 315.36 501.692Z"/>
	<path fill="#3AEBF1" d="M285.816 614.698C283.288 613.924 280.747 613.16 278.254 612.279C263.072 606.912 250.608 594.961 243.786 580.459C237.01 566.055 235.495 548.719 241.042 533.664C246.051 520.069 256.481 508.481 269.722 502.505C284.614 495.784 300.217 496.066 315.36 501.692C315.473 501.943 315.581 502.196 315.699 502.445C317.801 506.878 323.833 512.088 326.872 516.56C338.102 533.089 340.837 556.212 334.717 575.114C330.356 588.584 321.78 600.507 309.012 607.065C302.173 610.577 290.754 611.503 285.816 614.698Z"/>
	<path d="M282.923 573.458C291.489 573.482 299.376 574.559 308.398 574.259C307.681 577.994 306.403 580.922 304.486 584.152C302.351 586.618 299.439 588.112 296.143 588.291C292.948 588.466 289.647 587.057 287.324 584.908C283.782 581.633 282.987 578.059 282.923 573.458Z"/>
	<path d="M268.662 537.912C269.78 538.079 270.914 538.238 272.014 538.505C274.552 539.119 276.7 541.531 277.962 543.699C280.383 547.856 280.858 553.465 279.645 558.071C278.495 562.436 276.6 564.67 272.796 566.956C272.126 566.989 272.306 566.998 271.421 566.909C268.807 566.646 266.138 564.984 264.574 562.901C261.738 559.124 260.973 552.836 261.798 548.293C262.705 543.298 264.584 540.758 268.662 537.912Z"/>
	<path d="M314.996 537.463C316.027 537.43 317.095 537.415 318.117 537.583C320.805 538.022 323.019 539.867 324.516 542.061C327.429 546.33 328.007 552.444 326.845 557.388C325.935 561.256 324.235 564.084 320.856 566.208C320.039 566.357 319.165 566.491 318.334 566.437C316.048 566.29 313.529 564.922 312.004 563.239C308.875 559.785 308.16 554.123 308.587 549.662C309.085 544.452 310.959 540.735 314.996 537.463Z"/>
	<path fill="#DADAD9" d="M347.855 408.721C348.195 395.375 345.273 381.947 343.951 368.69C341.765 346.781 337.133 278.703 346.312 261.827C352.213 250.976 388.043 249.966 399.889 248.727C429.965 245.584 459.919 242.982 490.149 241.95C500.08 241.611 510.046 242.121 519.982 241.942C530.436 241.753 540.812 240.946 551.291 240.96C560.386 240.972 569.388 241.716 578.462 241.911L633.705 242.852C644.657 243.075 655.631 242.616 666.579 242.947C677.913 243.291 689.378 243.912 700.701 244.579C709.734 245.112 741.397 248.532 748.195 246.132C749.492 245.674 749.465 245.292 750.027 244.102L751.289 244.132C752.877 246.909 753.303 261.78 753.568 265.65C756.47 308.143 758.6 352.999 747.249 394.526C738.794 425.458 722.378 450.242 694.301 466.332C683.387 472.586 670.94 477.47 658.709 480.423C635.385 481.157 611.153 481.779 588.584 488.34C577.89 486.902 566.977 489.501 556.277 489.923C525.139 491.15 474.179 490.849 445.169 482.007C441.436 468.375 440.955 454.022 437.531 440.374C434.497 428.278 427.918 419.268 417.222 412.879C404.325 407.196 392.194 407.944 378.448 408.481C370.873 408.777 363.326 408.932 355.745 408.867C353.095 408.935 350.494 409.039 347.855 408.721Z"/>
	<path d="M638.022 252.68C647.7 251.8 659.834 253.736 667.309 260.531C670.469 263.405 675.451 270.602 675.611 274.961C675.654 276.126 675.43 276.226 674.655 276.986C672.556 275.892 670.935 272.778 669.36 270.996C664.935 265.99 657.311 263.457 651.135 261.588L645.606 261.294C630.953 260.592 622.066 265.979 611.542 275.579C612.482 271.814 613.499 268.326 615.679 265.044C620.884 257.207 629.286 254.433 638.022 252.68Z"/>
	<path d="M426.074 252.312C434.38 251.279 443.441 252.723 450.529 257.329C456.795 261.4 459.576 266.95 461.109 274.027C458.57 270.54 455.704 267.744 452.054 265.444C442.994 259.736 432.085 258.923 421.822 261.265C409.197 265.156 403.562 273.552 396.83 284.18C396.275 276.484 397.221 269.893 402.261 263.66C408.187 256.331 416.985 253.277 426.074 252.312Z"/>
	<path fill="#EA675A" d="M366.691 408.533C370.306 400.182 374.791 394.287 383.448 390.786C391.354 387.589 401.039 387.05 408.99 390.378C413.035 392.071 416.486 394.94 418.188 399.06C420.567 404.82 417.734 407.436 417.222 412.879C404.325 407.196 392.194 407.944 378.448 408.481C370.873 408.777 363.326 408.932 355.745 408.867C359.4 408.585 363.026 408.539 366.691 408.533Z"/>
	<path fill="#EA675A" d="M673.317 388.652C682.51 387.6 693.162 388.397 701.328 393.162C704.293 394.892 707.029 397.474 707.756 400.957C708.252 403.333 707.7 405.708 706.352 407.708C702.279 413.749 693.125 416.145 686.351 417.37C677.377 418.521 667.771 418.142 659.696 413.593C656.412 411.742 653.183 408.891 652.273 405.078C651.668 402.541 652.276 399.905 653.746 397.775C657.902 391.754 666.545 389.771 673.317 388.652Z"/>
	<path d="M537.839 380.738C542.594 380.498 547.518 380.915 552.295 380.935L584.518 380.988C584.823 396.519 580.318 412.939 570.066 424.874C561.36 435.008 551.239 439.218 538.124 440.241C537.36 440.327 537.793 440.303 536.672 440.234C523.896 439.44 514.342 434.724 505.978 424.98C496.27 413.669 490.498 396.162 491.608 381.318C506.996 380.995 522.472 381.445 537.839 380.738Z"/>
	<path fill="#EA675A" d="M534.858 407.648C547.968 406.482 558.313 410.585 569.408 417.214C561.741 426.548 555.262 431.186 543.46 434.239C541.383 434.482 539.201 434.585 537.11 434.571C524.409 434.49 516.498 427.589 508.039 419.047C516.694 412.614 524.18 409.388 534.858 407.648Z"/>
	<path d="M640.088 291.531C646.816 291.245 652.915 292.403 658.856 295.646C669.503 301.458 676.458 312.365 679.669 323.824C684.034 339.4 682.45 357.575 674.421 371.717C668.421 382.287 660.024 388.28 648.447 391.496C641.713 391.607 635.847 391.235 629.762 388.019C619.12 382.394 611.771 370.76 608.411 359.5C603.915 344.432 604.869 326.337 612.592 312.442C618.853 301.177 627.931 295.051 640.088 291.531Z"/>
	<path fill="#FEFDFD" d="M629.331 310.981C631.028 311.153 632.866 311.252 634.512 311.711C638.318 312.774 641.554 316.184 643.218 319.651C646.126 325.708 646.155 333.334 643.691 339.538C641.379 345.361 637.845 348.315 632.317 350.785C630.452 350.773 628.446 350.629 626.675 350.02C622.615 348.625 619.426 345.307 617.742 341.421C615.114 335.355 615.053 327.656 617.605 321.556C620.007 315.816 623.86 313.288 629.331 310.981Z"/>
	<path d="M427.087 290.537C433.218 290.257 438.777 290.774 444.394 293.386C454.671 298.166 461.975 307.666 465.809 318.154C471.588 333.961 471.092 353.267 463.857 368.523C458.169 380.515 449.479 387.859 437.103 392.218C430.334 392.981 423.813 391.95 417.809 388.673C407.034 382.791 400.184 371.316 396.781 359.834C392.144 344.187 393.154 324.742 401.133 310.309C407.152 299.421 415.331 293.9 427.087 290.537Z"/>
	<path fill="#FEFDFD" d="M417.315 310.517C419.076 310.443 420.983 310.428 422.698 310.86C426.808 311.895 430.165 314.895 432.137 318.579C435.022 323.969 435.487 331.076 433.713 336.885C431.908 342.794 428.252 346.433 422.932 349.231C421.218 349.382 419.44 349.402 417.752 349.019C413.552 348.067 410.114 345.305 408.013 341.582C405.001 336.241 404.457 328.68 406.207 322.812C408.035 316.681 411.853 313.361 417.315 310.517Z"/>
</svg>
